<svg id="Layer_1" viewBox="0 0 512 512" xmlns="http://www.w3.org/2000/svg" data-name="Layer 1"><path d="m490.28 460.86c13.51 11.26 14.14 28.77 5 40.22-11.15 13.58-29.16 13.88-40.72 4.3l-152.7-126.49 31.81-39.66z" fill="#f2702f"/><path d="m277.96 329.01h50.84v36.97h-50.84z" fill="#f29d36" transform="matrix(.626 -.78 .78 .626 -157.52 366.73)"/><path d="m490.82 461.31c6.47 22.37-18.89 33.76-39.24 17.05l-138.3-113.7 20.39-25.41c3.55 2.75 156.2 121.28 157.15 122.06z" fill="#ffba6e"/><path d="m293.58 321.52h31.62v36.97h-31.62z" fill="#ffd656" transform="matrix(.626 -.78 .78 .626 -149.42 368.62)"/><circle cx="169.58" cy="239.8" fill="#66686b" r="158.99"/><path d="m256.06 132c69.15 55.47 68.94 161-.63 216.11a138.2 138.2 0 1 1 .63-216.11z" fill="#d7fffd"/><path d="m255.43 348.11a125.63 125.63 0 1 1 -25.49-232.66c91.75 44.55 105 169.7 25.49 232.66z" fill="#a9f3f7"/><g fill="#ffd656"><path d="m216.4 62.48 11-7.26a4.91 4.91 0 0 1 6.8 6.8l-7.26 11a16.91 16.91 0 0 0 0 18.63l7.26 11a4.91 4.91 0 0 1 -6.8 6.8l-11-7.26a16.89 16.89 0 0 0 -18.62 0l-11 7.26a4.91 4.91 0 0 1 -6.8-6.8l7.26-11a16.91 16.91 0 0 0 0-18.63l-7.24-11.02a4.91 4.91 0 0 1 6.8-6.8l11 7.26a16.89 16.89 0 0 0 18.6.02z"/><path d="m328.46 14.26 20.37-13.45a4.65 4.65 0 0 1 6.45 6.45l-13.46 20.37a21.43 21.43 0 0 0 0 23.64l13.46 20.37a4.66 4.66 0 0 1 -6.45 6.45l-20.37-13.46a21.43 21.43 0 0 0 -23.64 0l-20.37 13.46a4.65 4.65 0 0 1 -6.45-6.45l13.45-20.37a21.39 21.39 0 0 0 0-23.64l-13.45-20.37a4.65 4.65 0 0 1 6.45-6.45l20.37 13.45a21.39 21.39 0 0 0 23.64 0z"/></g></svg>