<svg xmlns="http://www.w3.org/2000/svg" version="1.1" xmlns:xlink="http://www.w3.org/1999/xlink" width="512" height="512" x="0" y="0" viewBox="0 0 64 64" style="enable-background:new 0 0 512 512" xml:space="preserve" class=""><g><path d="M13.951 30.116h8.309a2.657 2.657 0 0 0 2.653-2.654v-9.187a2.656 2.656 0 0 0-2.653-2.653H13.95a2.656 2.656 0 0 0-2.653 2.653v9.187a2.657 2.657 0 0 0 2.653 2.654zm-.653-11.841c0-.354.299-.653.653-.653h8.309c.354 0 .653.299.653.653v9.187a.662.662 0 0 1-.653.654H13.95a.662.662 0 0 1-.653-.654zM28.345 18.08h11.133a1 1 0 1 0 0-2H28.345a1 1 0 1 0 0 2zM28.345 24.098h11.133a1 1 0 1 0 0-2H28.345a1 1 0 1 0 0 2z" fill="#ffffff" opacity="1" data-original="#000000" class=""></path><path d="m62.66 56.923-5.91-7.56a1.594 1.594 0 0 0-1.07-.605 1.593 1.593 0 0 0-1.186.328l-.866.678-1.167-1.49a13.142 13.142 0 0 0 3.746-8.792 13.156 13.156 0 0 0-3.577-9.488 13.166 13.166 0 0 0-7.31-3.954V9.886a3.03 3.03 0 0 0-3.027-3.027h-2.118V4.922a3.03 3.03 0 0 0-3.027-3.027H4.028A3.03 3.03 0 0 0 1 4.922v42.972a3.03 3.03 0 0 0 3.027 3.027h2.119v1.94a3.03 3.03 0 0 0 3.027 3.024h33.12a3.03 3.03 0 0 0 3.027-3.024v-.769a13.119 13.119 0 0 0 5.646-2.484l1.087 1.388-.87.68a1.607 1.607 0 0 0-.276 2.253l5.914 7.56a1.605 1.605 0 0 0 2.252.276l3.31-2.59a1.606 1.606 0 0 0 .277-2.252zM4.027 48.92C3.461 48.92 3 48.46 3 47.894V4.922c0-.566.46-1.027 1.027-1.027h33.12c.567 0 1.028.46 1.028 1.027V6.86H9.173a3.03 3.03 0 0 0-3.027 3.027v39.035H4.027zm39.293 3.94c0 .564-.46 1.024-1.027 1.024H9.173c-.566 0-1.027-.46-1.027-1.024V9.886c0-.566.46-1.027 1.027-1.027h33.12c.566 0 1.027.46 1.027 1.027v15.937a13.218 13.218 0 0 0-7.796 2.293h-7.18a1 1 0 1 0 0 2H33.2a13.127 13.127 0 0 0-2.528 4.018H12.298a1 1 0 1 0 0 2H30.06a13.337 13.337 0 0 0-.273 4.018h-17.49a1 1 0 1 0 0 2h17.806a13.168 13.168 0 0 0 1.695 4.017h-19.5a1 1 0 1 0 0 2h21.056a13.16 13.16 0 0 0 9.187 4.13c.263.007.516-.003.78-.01v.572zm-.714-2.562a11.175 11.175 0 0 1-7.844-3.548c-4.243-4.524-4.014-11.656.51-15.899a11.17 11.17 0 0 1 8.055-3.038 11.175 11.175 0 0 1 7.844 3.548c4.243 4.524 4.014 11.657-.51 15.9a11.168 11.168 0 0 1-8.055 3.037zm15.546 9.646-5.425-6.937 2.689-2.104 5.425 6.939z" fill="#ffffff" opacity="1" data-original="#000000" class=""></path><path d="M49.516 32.914c-3.388-3.61-9.08-3.791-12.689-.406-3.612 3.385-3.795 9.078-.41 12.692a8.955 8.955 0 0 0 6.55 2.83 8.958 8.958 0 0 0 6.143-2.425c3.609-3.386 3.79-9.08.406-12.69zm-1.774 11.232c-2.808 2.634-7.233 2.491-9.865-.314-2.632-2.809-2.49-7.234.317-9.865h.001a6.948 6.948 0 0 1 4.77-1.885c1.862 0 3.72.739 5.092 2.2 2.63 2.807 2.489 7.233-.315 9.864z" fill="#ffffff" opacity="1" data-original="#000000" class=""></path><path d="M48.3 37.864a5.329 5.329 0 0 0-6.334-4.064 1 1 0 1 0 .426 1.954c1.8-.39 3.565.748 3.956 2.537a.999.999 0 1 0 1.953-.427z" fill="#ffffff" opacity="1" data-original="#000000" class=""></path></g></svg>