<svg enable-background="new 0 0 64 64" height="512" viewBox="0 0 64 64" width="512" xmlns="http://www.w3.org/2000/svg"><g id="searching"><g><path d="m13.9512 30.1157h8.3086c1.4629 0 2.6533-1.1904 2.6533-2.6538v-9.187c0-1.4629-1.1904-2.6533-2.6533-2.6533h-8.3086c-1.4629 0-2.6533 1.1904-2.6533 2.6533v9.187c0 1.4634 1.1904 2.6538 2.6533 2.6538zm-.6533-11.8408c0-.354.2988-.6533.6533-.6533h8.3086c.3545 0 .6533.2993.6533.6533v9.187c0 .3545-.2988.6538-.6533.6538h-8.3086c-.3545 0-.6533-.2993-.6533-.6538z"/><path d="m28.3447 18.0796h11.1328c.5527 0 1-.4478 1-1s-.4473-1-1-1h-11.1328c-.5527 0-1 .4478-1 1s.4473 1 1 1z"/><path d="m28.3447 24.0977h11.1328c.5527 0 1-.4478 1-1s-.4473-1-1-1h-11.1328c-.5527 0-1 .4478-1 1s.4473 1 1 1z"/><path d="m62.6602 56.9229-5.9102-7.5596c-.2637-.3379-.6436-.5527-1.0703-.605-.4287-.0522-.8486.064-1.1855.3281l-.8665.6779-1.1667-1.4908c2.306-2.3712 3.6396-5.4633 3.7462-8.7916.1143-3.5376-1.1563-6.9067-3.5771-9.4878-2.0219-2.155-4.6028-3.4675-7.3096-3.9536v-16.1543c0-1.6694-1.3584-3.0273-3.0273-3.0273h-2.1182v-1.9365c0-1.6694-1.3584-3.0273-3.0273-3.0273h-33.1204c-1.6689-.0001-3.0273 1.3578-3.0273 3.0273v42.9712c0 1.6694 1.3584 3.0273 3.0273 3.0273h2.1182v1.9399c0 1.6675 1.3584 3.0239 3.0273 3.0239h33.1202c1.6689 0 3.0273-1.3564 3.0273-3.0239v-.7684c2.049-.3657 3.9739-1.2136 5.6459-2.4847l1.0867 1.3884-.8694.6801c-.6963.5444-.8213 1.5542-.2764 2.2524l5.9141 7.561c.3164.4033.7891.6147 1.2666.6143.3447 0 .6934-.1108.9854-.3394l3.3096-2.5894c.6973-.5442.8223-1.5545.2774-2.2522zm-58.6329-8.002c-.5664 0-1.0273-.4609-1.0273-1.0273v-42.9712c0-.5664.4609-1.0274 1.0273-1.0274h33.1201c.5664 0 1.0273.4609 1.0273 1.0273v1.9365h-29.0018c-1.6689 0-3.0273 1.3579-3.0273 3.0273v39.0347h-2.1183zm39.293 3.9399c0 .5645-.4609 1.0239-1.0273 1.0239h-33.1201c-.5664 0-1.0273-.4595-1.0273-1.0239v-42.9746c0-.5664.4609-1.0273 1.0273-1.0273h33.1201c.5664 0 1.0273.4609 1.0273 1.0273v15.9371c-2.7172-.0731-5.4503.6956-7.7968 2.2924h-7.1788c-.5527 0-1 .4478-1 1s.4473 1 1 1h4.8551c-1.1049 1.2055-1.9509 2.5681-2.528 4.0181h-18.374c-.5527 0-1 .4478-1 1s.4473 1 1 1h17.762c-.2956 1.3188-.3846 2.6736-.2733 4.0181h-17.4886c-.5527 0-1 .4478-1 1s.4473 1 1 1h17.8049c.3357 1.4017.8955 2.7621 1.6956 4.0176h-19.5005c-.5527 0-1 .4478-1 1s.4473 1 1 1h21.0564c2.416 2.5486 5.6737 4.0159 9.1868 4.1289.263.0079.5158-.0025.7793-.0092-.0001.1905-.0001.381-.0001.5716zm-.7148-2.5615c-3.0029-.0967-5.7891-1.3564-7.8438-3.5479-4.2432-4.5239-4.0137-11.6563.5098-15.8994 2.1016-1.9707 4.8184-3.0435 7.6855-3.0435.123 0 .2461.002.3701.0059 3.0029.0967 5.7891 1.3564 7.8438 3.5479 4.2432 4.5239 4.0137 11.6563-.5107 15.8994-2.1905 2.0557-5.0372 3.1289-8.0547 3.0376zm15.5468 9.646-5.4258-6.937 2.6895-2.104 5.4248 6.9385z"/><path d="m49.5156 32.9141c-3.3877-3.6099-9.0791-3.7915-12.6885-.4058-3.6123 3.3843-3.7949 9.0781-.4092 12.6919 1.7637 1.8799 4.1543 2.8301 6.5498 2.8301 2.2031 0 4.4111-.8032 6.1426-2.4248 3.6085-3.3863 3.7901-9.0796.4053-12.6914zm-1.7734 11.2324c-2.8086 2.6333-7.2334 2.4907-9.8652-.314-2.6318-2.8091-2.4893-7.2344.3174-9.8652h.001c1.3438-1.2612 3.0586-1.8853 4.7705-1.8853 1.8613 0 3.7197.7388 5.0908 2.1997 2.6308 2.8077 2.4892 7.2334-.3145 9.8648z"/><path d="m48.3008 37.8638c-.625-2.8667-3.4678-4.6885-6.335-4.064-.54.1177-.8818.6504-.7646 1.1899.1182.5391.6523.8799 1.1904.7642 1.7998-.3896 3.5654.7485 3.9561 2.5366.1016.4678.5156.7871.9756.7866.0703 0 .1426-.0073.2139-.0229.5399-.1177.8817-.6509.7636-1.1904z"/></g></g></svg>